<svg width="64" height="64" viewBox="0 0 64 64" fill="none" xmlns="http://www.w3.org/2000/svg">
<path d="M32 15.2178C35.0895 15.2178 37.5941 12.7133 37.5941 9.62375C37.5941 6.53424 35.0895 4.02969 32 4.02969C28.9105 4.02969 26.4059 6.53424 26.4059 9.62375C26.4059 12.7133 28.9105 15.2178 32 15.2178Z" fill="#ECEFFA"/>
<path d="M32 37.5941C35.0895 37.5941 37.5941 35.0895 37.5941 32C37.5941 28.9105 35.0895 26.4059 32 26.4059C28.9105 26.4059 26.4059 28.9105 26.4059 32C26.4059 35.0895 28.9105 37.5941 32 37.5941Z" fill="#ECEFFA"/>
<path d="M32 59.9703C35.0895 59.9703 37.5941 57.4658 37.5941 54.3762C37.5941 51.2867 35.0895 48.7822 32 48.7822C28.9105 48.7822 26.4059 51.2867 26.4059 54.3762C26.4059 57.4658 28.9105 59.9703 32 59.9703Z" fill="#ECEFFA"/>
</svg>
