<svg width="64" height="64" viewBox="0 0 64 64" fill="none" xmlns="http://www.w3.org/2000/svg">
<path d="M48.7822 32C48.7822 35.0895 51.2867 37.5941 54.3762 37.5941C57.4658 37.5941 59.9703 35.0895 59.9703 32C59.9703 28.9105 57.4658 26.4059 54.3762 26.4059C51.2867 26.4059 48.7822 28.9105 48.7822 32Z" fill="#ECEFFA"/>
<path d="M26.4059 32C26.4059 35.0895 28.9105 37.5941 32 37.5941C35.0895 37.5941 37.5941 35.0895 37.5941 32C37.5941 28.9105 35.0895 26.4059 32 26.4059C28.9105 26.4059 26.4059 28.9105 26.4059 32Z" fill="#ECEFFA"/>
<path d="M4.02969 32C4.02969 35.0895 6.53423 37.5941 9.62375 37.5941C12.7133 37.5941 15.2178 35.0895 15.2178 32C15.2178 28.9105 12.7133 26.4059 9.62375 26.4059C6.53424 26.4059 4.02969 28.9105 4.02969 32Z" fill="#ECEFFA"/>
</svg>
