<svg width="64" height="64" viewBox="0 0 64 64" fill="none" xmlns="http://www.w3.org/2000/svg">
<g clip-path="url(#clip0)">
<path d="M51.799 46.8492L36.9497 32L51.799 17.1508C52.4554 16.4944 52.8241 15.6041 52.8241 14.6759C52.8241 13.7476 52.4554 12.8574 51.799 12.201C51.1426 11.5446 50.2524 11.1759 49.3241 11.1759C48.3959 11.1759 47.5056 11.5446 46.8492 12.201L32 27.0503L17.1508 12.201C16.4944 11.5446 15.6041 11.1759 14.6759 11.1759C13.7476 11.1759 12.8574 11.5446 12.201 12.201C11.5446 12.8574 11.1759 13.7476 11.1759 14.6759C11.1759 15.6041 11.5446 16.4944 12.201 17.1508L27.0503 32L12.201 46.8492C11.5446 47.5056 11.1759 48.3959 11.1759 49.3241C11.1759 50.2524 11.5446 51.1426 12.201 51.799C12.8574 52.4554 13.7476 52.8241 14.6759 52.8241C15.6041 52.8241 16.4944 52.4554 17.1508 51.799L32 36.9497L46.8492 51.799C47.5056 52.4554 48.3959 52.8241 49.3241 52.8241C50.2524 52.8241 51.1426 52.4554 51.799 51.799C52.4554 51.1426 52.8241 50.2524 52.8241 49.3241C52.8241 48.3959 52.4554 47.5056 51.799 46.8492Z" fill="#ECEFFA"/>
</g>
<defs>
<clipPath id="clip0">
<rect width="64" height="64" fill="white"/>
</clipPath>
</defs>
</svg>
