<svg width="64" height="64" viewBox="0 0 64 64" fill="none" xmlns="http://www.w3.org/2000/svg">
<path d="M57.0444 28.8889H6.95556C5.32325 28.8889 4 30.2121 4 31.8444V32.1556C4 33.7879 5.32325 35.1111 6.95556 35.1111H57.0444C58.6768 35.1111 60 33.7879 60 32.1556V31.8444C60 30.2121 58.6768 28.8889 57.0444 28.8889Z" fill="#ECEFFA"/>
<path d="M57.0444 44.4445H6.95556C5.32325 44.4445 4 45.7677 4 47.4V47.7111C4 49.3434 5.32325 50.6667 6.95556 50.6667H57.0444C58.6768 50.6667 60 49.3434 60 47.7111V47.4C60 45.7677 58.6768 44.4445 57.0444 44.4445Z" fill="#ECEFFA"/>
<path d="M57.0444 13.3333H6.95556C5.32325 13.3333 4 14.6566 4 16.2889V16.6C4 18.2323 5.32325 19.5556 6.95556 19.5556H57.0444C58.6768 19.5556 60 18.2323 60 16.6V16.2889C60 14.6566 58.6768 13.3333 57.0444 13.3333Z" fill="#ECEFFA"/>
</svg>
