<svg width="64" height="64" viewBox="0 0 64 64" fill="none" xmlns="http://www.w3.org/2000/svg">
<path d="M59.5952 31.0614L33.2471 4.51464C32.918 4.18502 32.4728 4 32.0088 4C31.5447 4 31.0995 4.18502 30.7704 4.51464L4.42237 31.0614C4.1346 31.3999 3.98423 31.8354 4.00131 32.2808C4.01839 32.7262 4.20165 33.1488 4.51448 33.4639C4.82731 33.7791 5.24666 33.9638 5.68874 33.981C6.13082 33.9982 6.56306 33.8467 6.89909 33.5567L32 8.26657L57.1009 33.5744C57.4369 33.8644 57.8692 34.0159 58.3113 33.9987C58.7533 33.9815 59.1727 33.7968 59.4855 33.4816C59.7984 33.1665 59.9816 32.7439 59.9987 32.2985C60.0158 31.8531 59.8654 31.4176 59.5776 31.0791L59.5952 31.0614Z" fill="#ECEFFA"/>
<path d="M49.5 56.5517H40.75V39.3103H23.25V56.5517H14.5V32.4138L11 35.8621V56.5517C11 57.4663 11.3687 58.3433 12.0251 58.99C12.6815 59.6367 13.5717 60 14.5 60H26.75V42.7586H37.25V60H49.5C50.4283 60 51.3185 59.6367 51.9749 58.99C52.6312 58.3433 53 57.4663 53 56.5517V35.4483L49.5 32V56.5517Z" fill="#ECEFFA"/>
</svg>
