<svg width="64" height="64" viewBox="0 0 64 64" fill="none" xmlns="http://www.w3.org/2000/svg">
<path d="M56.5 28.5H35.5V7.5C35.5 6.57174 35.1313 5.6815 34.4749 5.02513C33.8185 4.36875 32.9283 4 32 4C31.0717 4 30.1815 4.36875 29.5251 5.02513C28.8687 5.6815 28.5 6.57174 28.5 7.5V28.5H7.5C6.57174 28.5 5.6815 28.8687 5.02513 29.5251C4.36875 30.1815 4 31.0717 4 32C4 32.9283 4.36875 33.8185 5.02513 34.4749C5.6815 35.1313 6.57174 35.5 7.5 35.5H28.5V56.5C28.5 57.4283 28.8687 58.3185 29.5251 58.9749C30.1815 59.6313 31.0717 60 32 60C32.9283 60 33.8185 59.6313 34.4749 58.9749C35.1313 58.3185 35.5 57.4283 35.5 56.5V35.5H56.5C57.4283 35.5 58.3185 35.1313 58.9749 34.4749C59.6313 33.8185 60 32.9283 60 32C60 31.0717 59.6313 30.1815 58.9749 29.5251C58.3185 28.8687 57.4283 28.5 56.5 28.5Z" fill="#ECEFFA"/>
</svg>
