<svg width="64" height="64" viewBox="0 0 64 64" fill="none" xmlns="http://www.w3.org/2000/svg">
<path d="M59.1577 24.3671L42.0702 21.8578L34.4316 6.21047C34.223 5.78205 33.8798 5.43524 33.4558 5.22443C32.3925 4.69402 31.1003 5.13603 30.5686 6.21047L22.9301 21.8578L5.84257 24.3671C5.37147 24.4351 4.94075 24.6595 4.61098 24.9995C4.21231 25.4135 3.99262 25.9706 4.00019 26.5482C4.00776 27.1258 4.24197 27.6768 4.65136 28.08L17.0144 40.2592L14.0936 57.457C14.0251 57.857 14.0689 58.2685 14.22 58.6446C14.3712 59.0208 14.6236 59.3467 14.9487 59.5853C15.2738 59.8238 15.6586 59.9656 16.0594 59.9945C16.4602 60.0234 16.861 59.9382 17.2163 59.7486L32.5001 51.6292L47.784 59.7486C48.2012 59.973 48.6858 60.0478 49.1502 59.9662C50.3212 59.7622 51.1086 58.6402 50.9067 57.457L47.9859 40.2592L60.3489 28.08C60.6854 27.7468 60.9075 27.3116 60.9748 26.8355C61.1565 25.6455 60.3355 24.5439 59.1577 24.3671Z" fill="#ECEFFA"/>
</svg>
