<svg width="64" height="64" viewBox="0 0 64 64" fill="none" xmlns="http://www.w3.org/2000/svg">
<path d="M35.1078 10.4427C40.549 11.24 45.4873 14.0658 48.9316 18.3529C52.3759 22.6399 54.0713 28.0711 53.6775 33.5563C53.2838 39.0415 50.83 44.1748 46.8086 47.9259C42.7873 51.6771 37.496 53.7685 31.9967 53.7804C27.6116 53.7805 23.3285 52.4569 19.7081 49.9826C16.0877 47.5083 13.2986 43.9987 11.7058 39.9131C10.1129 35.8275 9.79059 31.3561 10.7809 27.0843C11.7713 22.8125 14.0282 18.9391 17.2563 15.9711L12.8541 11.5689C8.00091 16.1168 4.92514 22.2437 4.17751 28.8526C3.42989 35.4615 5.05923 42.1207 8.77379 47.6378C12.4883 53.1549 18.0455 57.1696 24.4502 58.9629C30.8549 60.7563 37.6889 60.2112 43.7283 57.4253C49.7678 54.6394 54.6183 49.7946 57.4114 43.7585C60.2044 37.7223 60.7576 30.889 58.9719 24.4822C57.1861 18.0754 53.178 12.5134 47.6653 8.79235C42.1526 5.07125 35.4954 3.43401 28.8856 4.1738V22.9338H35.1078V10.4489V10.4427Z" fill="#ECEFFA"/>
<path d="M20.552 23.2187C20.0521 23.7187 19.7712 24.3969 19.7712 25.104C19.7712 25.8111 20.0521 26.4893 20.552 26.9893L28.096 34.5333C28.5989 35.0191 29.2725 35.2879 29.9717 35.2818C30.6709 35.2757 31.3398 34.9953 31.8342 34.5009C32.3286 34.0064 32.6091 33.3376 32.6151 32.6384C32.6212 31.9392 32.3524 31.2656 31.8667 30.7627L24.32 23.2187C23.8199 22.7187 23.1418 22.4379 22.4347 22.4379C21.7276 22.4379 21.0494 22.7187 20.5493 23.2187H20.552Z" fill="#ECEFFA"/>
</svg>
