<svg width="64" height="64" viewBox="0 0 64 64" fill="none" xmlns="http://www.w3.org/2000/svg">
<path d="M34.8073 9.21507V9.27111C34.8073 11.1486 36.067 12.7179 37.8305 13.2783C45.8081 15.7723 51.6024 23.1982 51.6024 31.9972C51.6024 33.4544 51.4345 34.8275 51.1266 36.1726C50.7347 37.966 51.4625 39.8155 53.058 40.7682L53.086 40.7962C55.4933 42.1974 58.6284 40.9364 59.2722 38.2462C59.7481 36.2286 60 34.1269 60 31.9972C60 19.3872 51.6584 8.68264 40.1818 5.17985C37.5225 4.3672 34.8073 6.41284 34.8073 9.21507ZM29.041 51.3887C20.6715 50.1837 13.8694 43.3743 12.6378 35.0236C11.9121 30.3784 12.8782 25.6267 15.3601 21.635C17.8419 17.6434 21.674 14.6775 26.1579 13.2783C27.9493 12.7459 29.209 11.1486 29.209 9.27111V9.21507C29.209 6.41284 26.4938 4.3672 23.8065 5.17985C17.4358 7.14037 11.9706 11.308 8.39035 16.9358C4.8101 22.5636 3.34877 29.2839 4.26824 35.8923C5.91976 48.1661 15.8289 58.086 28.0893 59.7393C36.8787 60.9163 44.9964 58.03 50.8467 52.6497C52.9181 50.7442 52.5542 47.3535 50.1189 45.9524C48.4953 44.9996 46.4799 45.3078 45.0803 46.5688C40.9655 50.3238 35.2552 52.3134 29.041 51.3887Z" fill="#ECEFFA"/>
</svg>
